<svg width="40" height="31" viewBox="0 0 40 31" fill="none" xmlns="http://www.w3.org/2000/svg">
<ellipse cx="20" cy="15.1372" rx="20" ry="15.1372" fill="#161616"/>
<ellipse cx="20.0153" cy="15.1524" rx="19.253" ry="14.5732" fill="#B5B5B5"/>
<rect x="9.7561" y="4.66464" width="1.28049" height="21.4939" fill="#063C05"/>
<rect x="10.061" y="5.50717" width="1.28049" height="14.9397" transform="rotate(-41.1456 10.061 5.50717)" fill="#063C05"/>
<path d="M13.2012 4.02438L13.2012 5.94512L7.6219 5.94512L7.6219 4.02438L13.2012 4.02438Z" fill="#063C05"/>
<path d="M13.2012 24.2378L13.2012 26.1585L7.6219 26.1585L7.6219 24.2378L13.2012 24.2378Z" fill="#063C05"/>
<path d="M22.8049 24.2378L22.8049 26.1585L17.2257 26.1585L17.2257 24.2378L22.8049 24.2378Z" fill="#063C05"/>
<path d="M32.4085 24.2378L32.4085 26.1585L26.8292 26.1585L26.8292 24.2378L32.4085 24.2378Z" fill="#063C05"/>
<path d="M32.4085 4.02438L32.4085 5.94512L26.8292 5.94512L26.8292 4.02438L32.4085 4.02438Z" fill="#063C05"/>
<rect width="1.28049" height="21.4939" transform="matrix(-1 0 0 1 30.2439 4.66464)" fill="#063C05"/>
<rect width="1.28049" height="10.7317" transform="matrix(-1 0 0 1 20.6403 15.4268)" fill="#063C05"/>
<rect width="1.28049" height="14.9397" transform="matrix(-0.75304 -0.657975 -0.657975 0.75304 29.939 5.50717)" fill="#063C05"/>
</svg>