<svg width="262" height="262" viewBox="0 0 262 262" fill="none" xmlns="http://www.w3.org/2000/svg">
<circle cx="131" cy="131" r="128" fill="#053301"/>
<g filter="url(#filter0_f_5_42)">
<circle cx="131" cy="131" r="110.644" fill="#062902"/>
</g>
<path fill-rule="evenodd" clip-rule="evenodd" d="M67.5432 46.6433C88.7546 40.2478 111.544 39.1708 133.732 44.0145L127.532 64.9506C124.218 64.1757 120.889 63.5335 117.552 63.0224L129.452 109.196L166.293 80.862C165.086 80.1261 163.864 79.4068 162.625 78.7043C160.897 77.724 159.156 76.7868 157.404 75.8926L163.736 54.5054C166.081 55.6587 168.406 56.8882 170.709 58.1945C195.371 72.1839 213.803 92.9246 225 116.778L218.422 140.615C215.177 133.175 211.24 126.015 206.641 119.241L184.818 198.318C191.284 197.132 197.655 195.467 203.873 193.337L198.476 212.894C178.638 220.169 157.137 222.675 135.856 219.892L142.008 199.115C145.051 199.559 148.1 199.895 151.148 200.123L174.712 114.73L90.1481 179.767C92.0627 180.986 94.0184 182.163 96.015 183.295C97.1138 183.919 98.2185 184.525 99.328 185.114L92.9859 206.531C91.2899 205.663 89.6045 204.754 87.9309 203.805C66.2395 191.501 49.3678 173.974 38 153.699L44.4758 130.233C46.5642 134.191 48.8584 138.052 51.3537 141.797L72.8607 63.8614C69.2373 64.5536 65.6452 65.3966 62.094 66.3877L67.5432 46.6433ZM95.0255 103.749L83.8431 144.274L101.892 130.392L95.0255 103.749Z" fill="white"/>
<defs>
<filter id="filter0_f_5_42" x="0.355957" y="0.355927" width="261.288" height="261.288" filterUnits="userSpaceOnUse" color-interpolation-filters="sRGB">
<feFlood flood-opacity="0" result="BackgroundImageFix"/>
<feBlend mode="normal" in="SourceGraphic" in2="BackgroundImageFix" result="shape"/>
<feGaussianBlur stdDeviation="10" result="effect1_foregroundBlur_5_42"/>
</filter>
</defs>
</svg>
